#!OML:ASF H:\LiuWeirdWalks\Patient Classification 1\Patient 1\Session 1\male.ASF
:FULLY-SPECIFIED
:DEGREES
1337
root 2.34547 17.9254 8.9039 -0.671593 -3.98805 4.48929
lowerback 3.87537 -5.4914 -9.12773
upperback -0.43135 -7.71314 2.01613
thorax -1.13729 -3.79335 7.46996
lowerneck -14.7798 2.03776 7.38492
upperneck 20.9475 2.61601 -7.09563
head 9.20672 1.02701 -3.36626
rclavicle -1.49834e-014 7.15625e-015
rhumerus -44.507 -3.97713 -77.5787
rradius 35.5235
rwrist -8.74543
rhand -15.8693 -5.13061
rfingers 7.12502
rthumb 10.3262 -34.8571
lclavicle -1.49834e-014 7.15625e-015
lhumerus -27.9934 -6.16161 90.4349
lradius 34.8374
lwrist 11.3439
lhand -11.3013 -2.27239
lfingers 7.12502
lthumb 14.7303 27.1842
rfemur -32.6339 -0.0585569 15.4154
rtibia 25.0364
rfoot -12.7469 -15.3569
rtoes -12.4555
lfemur 8.95459 3.17422 -29.8086
ltibia 12.2829
lfoot -10.4126 10.4698
ltoes -11.9965
1338
root 2.33339 17.9202 8.95752 -0.676946 -3.91614 4.57385
lowerback 3.70969 -5.32481 -9.02291
upperback -0.507867 -7.47365 1.99602
thorax -1.18703 -3.66835 7.37878
lowerneck -14.5911 1.78204 6.99105
upperneck 20.9615 2.32676 -6.91545
head 9.14526 0.882742 -3.272
rclavicle -2.4612e-014 1.27222e-014
rhumerus -44.8804 -4.35349 -77.2005
rradius 35.4979
rwrist -8.76435
rhand -15.8609 -5.13552
rfingers 7.12502
rthumb 10.3343 -34.8616
lclavicle -2.4612e-014 1.27222e-014
lhumerus -28.1687 -6.62938 90.8198
lradius 34.8225
lwrist 11.3368
lhand -11.2804 -2.27412
lfingers 7.12502
lthumb 14.7504 27.181
rfemur -32.4665 0.106517 15.2554
rtibia 24.8467
rfoot -12.8185 -15.3466
rtoes -12.5349
lfemur 9.30021 3.13933 -29.8613
ltibia 11.9959
lfoot -10.3325 10.4326
ltoes -12.1731
1339
root 2.32024 17.9152 9.01198 -0.673952 -3.83733 4.63729
lowerback 3.56403 -5.20256 -8.94259
upperback -0.579048 -7.29615 1.98838
thorax -1.22486 -3.57527 7.31585
lowerneck -14.4663 1.58612 6.68384
upperneck 21.0075 2.1046 -6.77283
head 9.1152 0.771492 -3.19781
rclavicle 1.23122e-014 0
rhumerus -45.1817 -4.63094 -76.8959
rradius 35.4361
rwrist -8.74476
rhand -15.8337 -5.11331
rfingers 7.12502
rthumb 10.3605 -34.8381
lclavicle 1.23122e-014 0
lhumerus -28.3291 -6.97108 91.119
lradius 34.7999
lwrist 11.3182
lhand -11.2662 -2.29206
lfingers 7.12502
lthumb 14.764 27.1621
rfemur -32.2988 0.29585 15.1078
rtibia 24.6683
rfoot -12.9062 -15.3428
rtoes -12.6186
lfemur 9.63101 3.10249 -29.8854
ltibia 11.7302
lfoot -10.2564 10.3894
ltoes -12.3763
1340
root 2.30671 17.9104 9.06693 -0.659738 -3.73932 4.69063
lowerback 3.4402 -5.10464 -8.87021
upperback -0.65931 -7.1539 1.98811
thorax -1.27525 -3.49891 7.26799
lowerneck -14.3488 1.41938 6.42848
upperneck 21.0654 1.91698 -6.66136
head 9.09515 0.676944 -3.13914
rclavicle -5.15349e-014 -1.43125e-014
rhumerus -45.456 -4.8509 -76.6248
rradius 35.3566
rwrist -8.70908
rhand -15.797 -5.10879
rfingers 7.12502
rthumb 10.396 -34.8318
lclavicle -5.15349e-014 -1.43125e-014
lhumerus -28.4929 -7.25072 91.3773
lradius 34.7718
lwrist 11.2847
lhand -11.2368 -2.29062
lfingers 7.12502
lthumb 14.7923 27.1615
rfemur -32.1336 0.471357 14.968
rtibia 24.4994
rfoot -13.0042 -15.3324
rtoes -12.7614
lfemur 9.9341 3.05524 -29.8947
ltibia 11.503
lfoot -10.1977 10.3377
ltoes -12.587
1341
root 2.29259 17.9057 9.12253 -0.631288 -3.63021 4.72543
lowerback 3.33999 -5.0897 -8.84937
upperback -0.700591 -7.12524 2.00148
thorax -1.2685 -3.48361 7.26242
lowerneck -14.3846 1.36467 6.35232
upperneck 21.1295 1.8548 -6.64058
head 9.1183 0.643435 -3.12792
rclavicle -7.44076e-014 1.27222e-014
rhumerus -45.5446 -4.9097 -76.503
rradius 35.2236
rwrist -8.63783
rhand -15.7452 -5.0999
rfingers 7.12502
rthumb 10.4459 -34.8204
lclavicle -7.44076e-014 1.27222e-014
lhumerus -28.5653 -7.32325 91.4658
lradius 34.7419
lwrist 11.2589
lhand -11.1814 -2.26333
lfingers 7.12502
lthumb 14.8458 27.1848
rfemur -31.9731 0.633413 14.8501
rtibia 24.3369
rfoot -13.1229 -15.3179
rtoes -12.9302
lfemur 10.2011 2.99897 -29.8806
ltibia 11.3258
lfoot -10.1588 10.2836
ltoes -12.7976
1342
root 2.27807 17.9009 9.17891 -0.593604 -3.51482 4.76729
lowerback 3.27655 -5.1816 -8.92733
upperback -0.700177 -7.24505 2.0239
thorax -1.19767 -3.54688 7.32121
lowerneck -14.5967 1.4484 6.49266
upperneck 21.2318 1.94845 -6.72162
head 9.20239 0.686634 -3.1716
rclavicle 5.72748e-015 -6.36111e-015
rhumerus -45.4158 -4.75155 -76.5775
rradius 35.0227
rwrist -8.51174
rhand -15.6943 -5.05744
rfingers 7.12502
rthumb 10.495 -34.7754
lclavicle 5.72748e-015 -6.36111e-015
lhumerus -28.5453 -7.1243 91.3404
lradius 34.714
lwrist 11.2521
lhand -11.1218 -2.22952
lfingers 7.12502
lthumb 14.9031 27.2144
rfemur -31.8168 0.773072 14.7304
rtibia 24.1843
rfoot -13.25 -15.2839
rtoes -13.1202
lfemur 10.4392 2.93346 -29.8728
ltibia 11.191
lfoot -10.1352 10.2302
ltoes -12.9997
1343
root 2.26308 17.8962 9.23621 -0.547931 -3.39595 4.79561
lowerback 3.23338 -5.34606 -9.04768
upperback -0.681596 -7.46447 2.05482
thorax -1.09326 -3.66235 7.41183
lowerneck -14.8974 1.62818 6.7825
upperneck 21.3458 2.14951 -6.86944
head 9.31835 0.783423 -3.25132
rclavicle 4.60932e-015 2.38542e-015
rhumerus -45.1716 -4.42777 -76.79
rradius 34.7941
rwrist -8.37821
rhand -15.6633 -5.0194
rfingers 7.12502
rthumb 10.5249 -34.7359
lclavicle 4.60932e-015 2.38542e-015
lhumerus -28.508 -6.74241 91.0724
lradius 34.7151
lwrist 11.2705
lhand -11.0631 -2.17746
lfingers 7.12502
lthumb 14.9597 27.2622
rfemur -31.6621 0.894542 14.6326
rtibia 24.0432
rfoot -13.3791 -15.2422
rtoes -13.3414
lfemur 10.6583 2.86105 -29.8469
ltibia 11.0868
lfoot -10.1271 10.1726
ltoes -13.1959
1344
root 2.24732 17.8916 9.29448 -0.49712 -3.27559 4.81725
lowerback 3.21177 -5.57603 -9.21866
upperback -0.654234 -7.77489 2.09355
thorax -0.96521 -3.82496 7.53791
lowerneck -15.2404 1.89006 7.20328
upperneck 21.4578 2.44153 -7.07511
head 9.45286 0.926026 -3.36196
rclavicle 1.93939e-014 3.18055e-015
rhumerus -44.8314 -3.97443 -77.114
rradius 34.5311
rwrist -8.2307
rhand -15.6538 -5.00175
rfingers 7.12502
rthumb 10.5341 -34.7178
lclavicle 1.93939e-014 3.18055e-015
lhumerus -28.485 -6.19263 90.6806
lradius 34.7505
lwrist 11.3046
lhand -11.0258 -2.13848
lfingers 7.12502
lthumb 14.9957 27.2985
rfemur -31.5044 1.02128 14.5439
rtibia 23.9125
rfoot -13.4948 -15.2133
rtoes -13.5324
lfemur 10.8639 2.7791 -29.8096
ltibia 11.0066
lfoot -10.1296 10.1131
ltoes -13.3892
1345
root 2.23091 17.8868 9.35379 -0.445552 -3.1511 4.84028
lowerback 3.18105 -5.80232 -9.38131
upperback -0.650004 -8.08008 2.12599
thorax -0.85721 -3.98326 7.6517
lowerneck -15.4777 2.14862 7.64199
upperneck 21.5289 2.72996 -7.29241
head 9.55585 1.0685 -3.47857
rclavicle -5.01931e-014 -1.82882e-014
rhumerus -44.5485 -3.53838 -77.4219
rradius 34.2777
rwrist -8.09452
rhand -15.6781 -4.98682
rfingers 7.12502
rthumb 10.5107 -34.704
lclavicle -5.01931e-014 -1.82882e-014
lhumerus -28.5408 -5.65015 90.2953
lradius 34.8052
lwrist 11.3249
lhand -11.0081 -2.13748
lfingers 7.12502
lthumb 15.0127 27.2983
rfemur -31.339 1.14298 14.4571
rtibia 23.7901
rfoot -13.5936 -15.1995
rtoes -13.7174
lfemur 11.0629 2.69395 -29.7681
ltibia 10.9463
lfoot -10.141 10.0433
ltoes -13.5961
1346
root 2.21362 17.882 9.41382 -0.392543 -3.02648 4.8466
lowerback 3.08729 -5.86064 -9.40028
upperback -0.696137 -8.15108 2.15646
thorax -0.831994 -4.01853 7.68444
lowerneck -15.5297 2.17827 7.7058
upperneck 21.5637 2.76351 -7.33637
head 9.58228 1.0837 -3.50155
rclavicle -5.5287e-015 -3.18055e-015
rhumerus -44.5222 -3.47989 -77.4073
rradius 34.1041
rwrist -8.00352
rhand -15.7024 -4.96906
rfingers 7.12502
rthumb 10.4873 -34.6875
lclavicle -5.5287e-015 -3.18055e-015
lhumerus -28.683 -5.52825 90.2252
lradius 34.8375
lwrist 11.2819
lhand -11.0011 -2.17601
lfingers 7.12502
lthumb 15.0194 27.2592
rfemur -31.1648 1.28802 14.387
rtibia 23.6735
rfoot -13.6832 -15.2208
rtoes -13.8539
lfemur 11.2532 2.59799 -29.7038
ltibia 10.905
lfoot -10.153 9.96955
ltoes -13.8091
1347
root 2.19574 17.8772 9.47514 -0.345213 -2.90181 4.85097
lowerback 2.99132 -5.89554 -9.40315
upperback -0.744279 -8.19003 2.1882
thorax -0.815976 -4.03724 7.71012
lowerneck -15.5507 2.18958 7.74432
upperneck 21.5629 2.77872 -7.38034
head 9.58843 1.08882 -3.52174
rclavicle -2.31087e-015 -8.74653e-015
rhumerus -44.5226 -3.47674 -77.3485
rradius 33.96
rwrist -7.93651
rhand -15.7253 -4.96209
rfingers 7.12502
rthumb 10.4652 -34.6816
lclavicle -2.31087e-015 -8.74653e-015
lhumerus -28.8254 -5.47356 90.1934
lradius 34.8547
lwrist 11.2393
lhand -10.9936 -2.23161
lfingers 7.12502
lthumb 15.0266 27.2031
rfemur -30.972 1.44598 14.3185
rtibia 23.5612
rfoot -13.7774 -15.266
rtoes -13.9458
lfemur 11.4415 2.49965 -29.6333
ltibia 10.8861
lfoot -10.1723 9.88905
ltoes -14.0303
1348
root 2.1774 17.8723 9.53762 -0.30239 -2.77416 4.85021
lowerback 2.88883 -5.89398 -9.37024
upperback -0.796155 -8.17849 2.21841
thorax -0.815413 -4.02984 7.7152
lowerneck -15.5198 2.157 7.71698
upperneck 21.5277 2.74683 -7.40384
head 9.56726 1.06976 -3.52866
rclavicle -1.09829e-014 4.77083e-015
rhumerus -44.5612 -3.56993 -77.2195
rradius 33.8447
rwrist -7.88683
rhand -15.7393 -4.99402
rfingers 7.12502
rthumb 10.4516 -34.7142
lclavicle -1.09829e-014 4.77083e-015
lhumerus -28.9653 -5.50378 90.2187
lradius 34.859
lwrist 11.1749
lhand -10.9849 -2.28092
lfingers 7.12502
lthumb 15.0351 27.1532
rfemur -30.7618 1.61291 14.256
rtibia 23.4526
rfoot -13.876 -15.3276
rtoes -14.0175
lfemur 11.6273 2.39583 -29.5544
ltibia 10.8881
lfoot -10.1956 9.80541
ltoes -14.2634
1349
root 2.15874 17.8671 9.60119 -0.256314 -2.65486 4.84731
lowerback 2.78103 -5.87655 -9.32291
upperback -0.852793 -8.14495 2.24923
thorax -0.823114 -4.01086 7.71331
lowerneck -15.4883 2.11457 7.67058
upperneck 21.4878 2.70548 -7.42528
head 9.54315 1.04499 -3.53269
rclavicle 9.44227e-016 1.66979e-014
rhumerus -44.6189 -3.70243 -77.0565
rradius 33.7523
rwrist -7.85238
rhand -15.724 -5.02752
rfingers 7.12502
rthumb 10.4664 -34.747
lclavicle 9.44227e-016 1.66979e-014
lhumerus -29.1139 -5.56588 90.2663
lradius 34.8686
lwrist 11.1505
lhand -10.9654 -2.28902
lfingers 7.12502
lthumb 15.0538 27.1437
rfemur -30.548 1.77727 14.204
rtibia 23.3513
rfoot -13.9712 -15.3884
rtoes -14.0913
lfemur 11.8072 2.29122 -29.4738
ltibia 10.9018
lfoot -10.2162 9.72629
ltoes -14.5093
1350
root 2.14023 17.8614 9.66608 -0.212377 -2.52901 4.85879
lowerback 2.68376 -5.86604 -9.28915
upperback -0.907618 -8.12215 2.27989
thorax -0.830818 -3.99726 7.71964
lowerneck -15.4883 2.07602 7.61383
upperneck 21.4562 2.66903 -7.44085
head 9.5282 1.02178 -3.53247
rclavicle -8.85896e-014 -2.46493e-014
rhumerus -44.6639 -3.81839 -76.8976
rradius 33.6747
rwrist -7.83779
rhand -15.6975 -5.04882
rfingers 7.12502
rthumb 10.492 -34.767
lclavicle -8.85896e-014 -2.46493e-014
lhumerus -29.2519 -5.60192 90.3061
lradius 34.8783
lwrist 11.1651
lhand -10.9331 -2.24927
lfingers 7.12502
lthumb 15.085 27.1811
rfemur -30.3211 1.91193 14.1463
rtibia 23.2613
rfoot -14.0653 -15.4367
rtoes -14.1612
lfemur 11.991 2.1723 -29.4133
ltibia 10.9224
lfoot -10.2299 9.65702
ltoes -14.7593
1351
root 2.12165 17.8552 9.73245 -0.171468 -2.41027 4.87621
lowerback 2.58466 -5.84382 -9.24885
upperback -0.961457 -8.08334 2.30823
thorax -0.84086 -3.97557 7.7201
lowerneck -15.5353 2.02533 7.52261
upperneck 21.4494 2.61706 -7.43402
head 9.52861 0.990205 -3.52111
rclavicle -3.31101e-014 3.97569e-015
rhumerus -44.7179 -3.96305 -76.7138
rradius 33.607
rwrist -7.82357
rhand -15.6806 -5.06435
rfingers 7.12502
rthumb 10.5083 -34.7817
lclavicle -3.31101e-014 3.97569e-015
lhumerus -29.3888 -5.6652 90.361
lradius 34.8898
lwrist 11.2005
lhand -10.9063 -2.1945
lfingers 7.12502
lthumb 15.1107 27.2339
rfemur -30.0868 2.01487 14.0995
rtibia 23.1881
rfoot -14.1318 -15.4624
rtoes -14.2572
lfemur 12.1844 2.05171 -29.3627
ltibia 10.9411
lfoot -10.2323 9.59648
ltoes -15.0344
